<svg version="1.2" xmlns="http://www.w3.org/2000/svg" viewBox="0 8.1 60.3 47" width="25" height="27"><style></style><path fill-rule="evenodd" d="m0.5 2c0-0.8 0.7-1.5 1.5-1.5h11.6c0.8 0 1.4 0.6 1.5 1.3l1.3 9.8h42.6c0.5 0 1 0.3 1.3 0.7 0.2 0.4 0.3 1 0.1 1.4l-10.2 21.9c-0.3 0.6-0.8 0.9-1.4 0.9h-30.8c-0.7 0-1.3-0.6-1.4-1.3l-4.3-31.7h-10.3c-0.8 0-1.5-0.7-1.5-1.5zm16.3 12.6l2.6 18.9h28.5l8.7-18.9z" stroke="black" stroke-width="1"/><path  d="M18.589 35H49.7083L60 13H16L18.589 35Z"/><path  d="m21 49c2.2 0 4-1.8 4-4 0-2.2-1.8-4-4-4-2.2 0-4 1.8-4 4 0 2.2 1.8 4 4 4z" stroke="black" stroke-width="1"/><path  d="m45 49c2.2 0 4-1.8 4-4 0-2.2-1.8-4-4-4-2.2 0-4 1.8-4 4 0 2.2 1.8 4 4 4z" stroke="black" stroke-width="1"/></svg>