<svg version="1.2" xmlns="http://www.w3.org/2000/svg" viewBox="0 0 256 256" width="256" height="256"><style>.a{fill:#FFFF;stroke:#FFFF;stroke-miterlimit:10;stroke-width:5.6}</style><path class="a" d="m4.5 130.7h247.3c1.5 0 2.8-1.3 2.8-2.8 0-1.6-1.3-2.9-2.8-2.9h-247.3c-1.6 0-2.8 1.3-2.8 2.9 0 1.5 1.2 2.8 2.8 2.8z"/><path class="a" d="m43.7 169.8c0.7 0 1.4-0.2 2-0.8 1.1-1.1 1.1-2.9 0-4l-37.2-37.1 37.2-37.2c1.1-1.1 1.1-2.9 0-4-1.1-1.1-2.9-1.1-4 0l-39.2 39.2c-1.1 1.1-1.1 2.8 0 3.9l39.2 39.2c0.5 0.6 1.3 0.8 2 0.8z"/></svg>